/* XPM */
static char *livejournal_xpm[] = {
"32 32 262 2",
"  	c None",
". 	c #003366",
"+ 	c #194474",
"@ 	c #A87686",
"# 	c #EB9497",
"$ 	c #D38B92",
"% 	c #695B79",
"& 	c #002D61",
"* 	c #00275D",
"= 	c #104272",
"- 	c #FF9E9B",
"; 	c #FF9D9B",
"> 	c #896981",
", 	c #113263",
"' 	c #0C3C6E",
") 	c #5E7B98",
"! 	c #71879E",
"~ 	c #083769",
"{ 	c #00225A",
"] 	c #FFA29E",
"^ 	c #E39195",
"/ 	c #3B4770",
"( 	c #00265E",
"_ 	c #507296",
": 	c #D7DFE8",
"< 	c #FFFFFF",
"[ 	c #E7E3DF",
"} 	c #94A1AF",
"| 	c #143E6D",
"1 	c #00255C",
"2 	c #D88890",
"3 	c #EC9698",
"4 	c #2E426D",
"5 	c #002960",
"6 	c #7D94AB",
"7 	c #FDFDFB",
"8 	c #A9B2BC",
"9 	c #2D5179",
"0 	c #00285D",
"a 	c #00255B",
"b 	c #FF9B9A",
"c 	c #5D5878",
"d 	c #00265F",
"e 	c #748AA0",
"f 	c #DAD8D4",
"g 	c #EDEDEC",
"h 	c #E0E7ED",
"i 	c #5B7A9B",
"j 	c #002B5E",
"k 	c #002F64",
"l 	c #205384",
"m 	c #07396D",
"n 	c #002258",
"o 	c #B87D8B",
"p 	c #002A60",
"q 	c #50708F",
"r 	c #D5D3D1",
"s 	c #CDCDCC",
"t 	c #D8D5D2",
"u 	c #AFBCC9",
"v 	c #214976",
"w 	c #002157",
"x 	c #2D5E91",
"y 	c #76A9DA",
"z 	c #9DCFFB",
"A 	c #6D9FD0",
"B 	c #073568",
"C 	c #424B71",
"D 	c #154371",
"E 	c #C0C3C6",
"F 	c #D2D0CF",
"G 	c #D7D4D1",
"H 	c #97A4B1",
"I 	c #093364",
"J 	c #063469",
"K 	c #5B8DBF",
"L 	c #9CCFFF",
"M 	c #A0D3FF",
"N 	c #9BCEFF",
"O 	c #A2D5FF",
"P 	c #6DA0D1",
"Q 	c #073569",
"R 	c #002459",
"S 	c #002E63",
"T 	c #768BA1",
"U 	c #D9D5D2",
"V 	c #D4D2D0",
"W 	c #B1B8BF",
"X 	c #133F6D",
"Y 	c #00265B",
"Z 	c #2E6193",
"` 	c #A3D6FF",
" .	c #9ED1FF",
"..	c #99CCFF",
"+.	c #6EA2D3",
"@.	c #08366A",
"#.	c #002359",
"$.	c #023366",
"%.	c #A6AFB9",
"&.	c #DAD7D3",
"*.	c #CCCCCB",
"=.	c #365B81",
"-.	c #00285E",
";.	c #3F72A5",
">.	c #2B5D90",
",.	c #4172A5",
"'.	c #9ED0FE",
").	c #6FA2D3",
"!.	c #2F557C",
"~.	c #C5C6C8",
"{.	c #8C9BAB",
"].	c #00265C",
"^.	c #25588B",
"/.	c #6CA0D3",
"(.	c #679ACD",
"_.	c #235588",
":.	c #4072A4",
"<.	c #9DD0FE",
"[.	c #0A396C",
"}.	c #002158",
"|.	c #2E557D",
"1.	c #31577D",
"2.	c #033267",
"3.	c #598BBE",
"4.	c #6A9DD0",
"5.	c #689BCE",
"6.	c #215487",
"7.	c #3C6EA0",
"8.	c #9DCFFE",
"9.	c #0B3A6E",
"0.	c #002B5F",
"a.	c #235689",
"b.	c #6C9FD2",
"c.	c #6699CC",
"d.	c #699CCF",
"e.	c #6598CB",
"f.	c #1F5184",
"g.	c #9CCFFE",
"h.	c #71A4D6",
"i.	c #09386B",
"j.	c #002358",
"k.	c #00245A",
"l.	c #134477",
"m.	c #5A8DC0",
"n.	c #6B9ED1",
"o.	c #25578A",
"p.	c #3D6EA1",
"q.	c #9CCFFD",
"r.	c #71A4D5",
"s.	c #09376B",
"t.	c #114275",
"u.	c #3B6DA0",
"v.	c #9BCEFD",
"w.	c #00255A",
"x.	c #0F4073",
"y.	c #5789BC",
"z.	c #26588B",
"A.	c #396B9E",
"B.	c #9BCEFC",
"C.	c #A2D6FF",
"D.	c #72A5D7",
"E.	c #0A396D",
"F.	c #0E3F72",
"G.	c #5689BC",
"H.	c #275A8D",
"I.	c #396A9D",
"J.	c #9ACDFF",
"K.	c #A6D9FF",
"L.	c #7BAEDF",
"M.	c #114074",
"N.	c #0D3E71",
"O.	c #5588BB",
"P.	c #6B9FD2",
"Q.	c #386A9C",
"R.	c #92C4F3",
"S.	c #97CBFE",
"T.	c #8ABEF0",
"U.	c #669BCE",
"V.	c #134981",
"W.	c #00295E",
"X.	c #0A3C6C",
"Y.	c #0E4073",
"Z.	c #578ABD",
"`.	c #124274",
" +	c #2D6092",
".+	c #2D6297",
"++	c #22568A",
"@+	c #134273",
"#+	c #2C496B",
"$+	c #7F807D",
"%+	c #3C5772",
"&+	c #002259",
"*+	c #5184B7",
"=+	c #679ACE",
"-+	c #1C4F82",
";+	c #686D71",
">+	c #978F7F",
",+	c #A59382",
"'+	c #CEAE8D",
")+	c #F7C897",
"!+	c #FFDD9F",
"~+	c #8C8782",
"{+	c #001F5A",
"]+	c #0A3A6D",
"^+	c #5083B6",
"/+	c #6DA0D3",
"(+	c #3068A2",
"_+	c #85817E",
":+	c #FFDE9F",
"<+	c #FFD49C",
"[+	c #FFD19B",
"}+	c #FFCE9A",
"|+	c #CDAE8F",
"1+	c #012F63",
"2+	c #09396C",
"3+	c #5082B5",
"4+	c #356EA7",
"5+	c #687179",
"6+	c #FFD39B",
"7+	c #FFCC99",
"8+	c #FAC998",
"9+	c #294B6D",
"0+	c #002D64",
"a+	c #08386C",
"b+	c #4D80B3",
"c+	c #2F68A2",
"d+	c #6E7479",
"e+	c #FFD59C",
"f+	c #FFCD99",
"g+	c #6F767C",
"h+	c #001D5A",
"i+	c #07376A",
"j+	c #4C7FB2",
"k+	c #70A4D7",
"l+	c #225992",
"m+	c #91887E",
"n+	c #B7A18B",
"o+	c #07396C",
"p+	c #4377AC",
"q+	c #224E7B",
"r+	c #E3BB92",
"s+	c #E5BD94",
"t+	c #0B3867",
"u+	c #003065",
"v+	c #1D436C",
"w+	c #A59687",
"x+	c #DFBB93",
"y+	c #FECD99",
"z+	c #E7C095",
"A+	c #455A73",
"B+	c #022F64",
"C+	c #002B60",
"D+	c #00245C",
"E+	c #0A3766",
"F+	c #3E5771",
"G+	c #7D7E7F",
"H+	c #BCA58C",
"I+	c #E9C396",
"J+	c #4C6176",
"K+	c #002863",
"L+	c #002B61",
"M+	c #002F63",
"            . . . .                                             ",
"        . . . . . . . .                                         ",
"      + . @ # $ % & . * .                                       ",
"    = . - ; > , ' ) ! ~ { .                                     ",
"  . . ] ^ / ( _ : < [ } | 1 .                                   ",
"  . 2 3 4 5 6 < < < 7 8 9 0 a .                                 ",
". . b c d e f g < h i j k l m n .                               ",
". . o p q r s t u v w x y z A B a .                             ",
". . C D E F G H I J K L M N O P Q R .                           ",
". . S T U V W X Y Z `  .......O +.@.#..                         ",
"  . $.%.&.*.=.-.;.>.,.'.L ......O ).~ n .                       ",
"  . . !.~.{.].^./.(._.:.<.L ......O ).[.}..                     ",
"    . . |.1.2.3.4.5.(.6.7.8.L ......O y 9.Y .                   ",
"      . { 0.a.b.c.c.d.e.f.7.g.L ......O h.i.j..                 ",
"        . k.l.m.n.c.c.5.(.o.p.q.L ......O r.s.j..               ",
"          . R t.3.b.c.c.5.5.^.u.v.L ......O r.i.j..             ",
"            . w.x.y.b.c.c.5.5.z.A.B.L ......C.D.E.n .           ",
"              . n F.G.b.c.c.5.5.H.I.B. .J.J.N K.L.M.}..         ",
"                . R N.O.P.c.c.5.d.H.Q.R.N L S.T.U.V.W.X.        ",
"                  . Y Y.Z.b.c.c.5.5.o.`. +.+++@+#+$+%+(         ",
"                    . &+N.*+b.c.c.5.=+-+;+>+,+'+)+!+~+{+.       ",
"                      . n ]+^+b.c.c./+(+_+:+<+[+}+[+|+1+.       ",
"                        . #.2+3+b.c.n.4+5+6+7+7+7+}+8+9+0+      ",
"                          . #.a+b+b.b.c+d+e+7+7+7+f+<+g+h+      ",
"                            . R i+j+k+l+m+e+7+7+7+7+<+n+5 .     ",
"                              . &+o+p+q+r+<+f+7+7+7+6+s+t+.     ",
"                                . w.u+v+w+x+y+e+6+6+z+A+B+C+    ",
"                                  . W.D+( E+F+G+H+I+J+K+. . .   ",
"                                        . . . . L+. . . . S .   ",
"                                              . . . . . . M+.   ",
"                                                      . . . .   ",
"                                                                "};
